<?xml version="1.0" encoding="UTF-8"?>
<svg id="Layer_1" data-name="Layer 1" xmlns="http://www.w3.org/2000/svg" xmlns:xlink="http://www.w3.org/1999/xlink" viewBox="0 0 362.51 362.51">
  <defs>
    <radialGradient id="radial-gradient" cx="181.25" cy="181.25" fx="181.25" fy="181.25" r="136.9" gradientUnits="userSpaceOnUse">
      <stop offset="0" stop-color="#00a8dc"/>
      <stop offset="1" stop-color="#006099"/>
    </radialGradient>
    <radialGradient id="radial-gradient-2" cy="181.22" fy="181.22" r="160.05" xlink:href="#radial-gradient"/>
  </defs>
  <g>
    <path d="m181.25,350.8c-3.09,0-6.14-.8-8.82-2.31l-134.99-76.1c-5.48-3.09-8.88-8.86-8.88-15.06V105.13c0-6.2,3.4-11.97,8.88-15.06L172.43,13.97c5.36-3.02,12.29-3.02,17.65,0l134.99,76.1c5.48,3.09,8.88,8.86,8.88,15.06v152.2c0,6.2-3.4,11.97-8.88,15.06l-135,76.1c-2.68,1.51-5.73,2.31-8.82,2.31Z" style="fill: url(#radial-gradient);"/>
    <g>
      <path d="m181.25,28.73c-1.84,0-3.66.48-5.26,1.37L49.74,101.28c-3.21,1.81-5.21,5.18-5.21,8.78v142.35c0,3.6,2,6.96,5.21,8.78l126.25,71.17c3.2,1.8,7.33,1.8,10.52,0l126.26-71.17c3.21-1.81,5.21-5.18,5.21-8.78V110.06c0-3.6-2-6.96-5.21-8.78L186.52,30.11c-1.6-.9-3.42-1.37-5.26-1.37Z" style="fill: url(#radial-gradient-2);"/>
      <path d="m181.26,336.09c-2.24,0-4.48-.55-6.43-1.65l-126.26-71.18c-3.96-2.23-6.42-6.39-6.42-10.86V110.06c0-4.46,2.46-8.62,6.42-10.85L174.82,28.03c3.91-2.2,8.96-2.2,12.87,0l126.26,71.18c3.96,2.23,6.42,6.39,6.42,10.86v142.35c0,4.46-2.46,8.62-6.42,10.85l-126.26,71.18c-1.95,1.1-4.19,1.65-6.43,1.65Zm0-304.97c-1.44,0-2.85.37-4.09,1.07L50.91,103.36c-2.46,1.39-3.99,3.95-3.99,6.7v142.35c0,2.74,1.53,5.31,3.99,6.7l126.25,71.17c2.48,1.4,5.7,1.4,8.18,0l126.26-71.17c2.46-1.39,3.99-3.95,3.99-6.7V110.06c0-2.74-1.53-5.31-3.99-6.7l-126.25-71.17c-1.24-.7-2.65-1.07-4.09-1.07Z" style="fill: #fff;"/>
    </g>
  </g>
  <path d="m180.4,83.16c-.82.59-1.72,1.09-2.44,1.78-3.97,3.79-7.9,7.63-11.84,11.45-2.04,1.98-2.02,3.8,0,5.75,3.07,2.95,6.13,5.91,9.16,8.9.31.31.58.92.49,1.3-2.24,9.34-12.99,14.02-21.68,9.5-.71-.37-.93-.78-.92-1.52.03-5.13-.02-10.25.03-15.38.02-1.93-.76-3.23-2.59-4.01-1.21-.52-2.37-1.14-3.55-1.71-3.66-1.8-7.32-3.61-10.99-5.39-1.7-.82-3.38-.57-4.85.48-1.44,1.04-1.53,2.52-1.1,4.13.92,3.41,1.76,6.84,2.64,10.26,4.68,18.35,9.35,36.71,14.03,55.06.64,2.51,1.75,3.35,4.37,3.35,19.99,0,39.97,0,59.96.01,2.97,0,3.99-.79,4.71-3.62,1-3.93,1.99-7.86,2.99-11.78,3.93-15.51,7.86-31.01,11.8-46.52.61-2.42,1.26-4.83,1.86-7.25.58-2.35-.75-4.33-3.06-4.54-1.29-.12-2.53.05-3.74.64-4.81,2.35-9.64,4.68-14.5,6.95-1.86.87-2.71,2.17-2.69,4.18.06,5.13.01,10.25.04,15.38,0,.6-.19.91-.75,1.18-8.57,4.27-18.63-.06-21.07-9.09-.18-.68-.09-1.13.45-1.64,3.07-2.9,6.1-5.84,9.14-8.78,2.14-2.07,2.13-3.87.02-5.92-3.84-3.72-7.67-7.45-11.55-11.14-.8-.76-1.77-1.35-2.66-2.02-.57,0-1.14,0-1.72,0Z" style="fill: #fff;"/>
  <path d="m210.71,189.58c2.53,0,4-1.41,4.01-3.85.01-2.01,0-4.02-.01-6.02,0-3.13-1.23-4.31-4.48-4.31-9.26,0-18.51,0-27.77,0-10.47,0-20.95-.02-31.42-.01-2.6,0-3.96,1.33-3.99,3.85-.03,2.08,0,4.15.02,6.23.01,2.86,1.3,4.12,4.24,4.12,9.83,0,19.66,0,29.49,0,9.97,0,19.95,0,29.92,0Z" style="fill: #fff;"/>
  <path d="m293.22,240.61c-.19-1.35-.58-2.88-.97-4.23-.39-1.35-.97-2.69-1.74-3.84-.58-1.15-1.35-2.31-2.32-3.08l-22.82-22.68v-101.88h-24.34c-.24.93-.48,1.86-.72,2.78l-2.85,11.25h13.99v83.81H111.06v-83.81h13.98l-1.97-7.75-.69-2.73c-.3-1.18-.6-2.37-.9-3.55h-24.53v101.68l-22.82,22.68c-.97.96-1.74,1.92-2.32,3.08-.58,1.15-1.16,2.5-1.74,3.84-.39,1.35-.77,2.69-.97,4.23,0,1.54-.19,2.88-.19,4.04,0,1.92.39,3.84,1.16,5.38.77,1.73,1.74,3.08,3.09,4.42,1.35,1.35,2.71,2.31,4.45,3.08,1.74.77,3.48,1.15,5.41,1.15h196.47c1.93,0,3.87-.38,5.41-1.15,1.74-.77,3.09-1.73,4.45-3.08,1.35-1.35,2.32-2.69,3.09-4.42.77-1.73,1.16-3.46,1.16-5.38,0-1.15-.19-2.5-.39-3.84Zm-210.18,3.65c0,.06-.02.14-.02.19v-.19h.02c.02-.76.19-1.81.37-2.88.39-1.35.77-2.11,1.35-2.69l22.24-22.1h148.51l22.24,21.91c.58.58.97,1.54,1.35,2.69.39,1.35.39,2.31.39,3.08H83.04Z" style="fill: #fff;"/>
</svg>